# xmcd
# 
# Track frame offsets:
#     182
#     14147
#     27012
#     42277
#     57270
#     70672
#     83205
#     94167
#     106907
#     123410
#     134977
#     149725
#     164990
#     177960
# 
# Disc length: 2556
# 
# Revision: 0
# Processed by: cddbd v1.5.2PL0 Copyright (c) Steve Scherf et al.
# Submitted via: BonkEnc v1.0.6
# 
DISCID=d309fa0e
DTITLE=Silvinho - Minha Historia
DYEAR=0
DGENRE=Latin
TTITLE0=Tu Es o Maior Amor da Minha Vida
TTITLE1=Amor Ingrato
TTITLE2=Quem É
TTITLE3=Esta Noite Eu Queria Que o Mundo Acabasse
TTITLE4=Mulher Governanta
TTITLE5=Amor Perfeito
TTITLE6=Ciume
TTITLE7=Primeiro Beijo
TTITLE8=Amor Fingido
TTITLE9=Querida
TTITLE10=Amor Proibido
TTITLE11=Tu Foste o Sol Que Iluminou a Minha Vida
TTITLE12=Torturas
TTITLE13=Porque Choras Tanto
EXTD=
EXTT0=
EXTT1=
EXTT2=
EXTT3=
EXTT4=
EXTT5=
EXTT6=
EXTT7=
EXTT8=
EXTT9=
EXTT10=
EXTT11=
EXTT12=
EXTT13=
PLAYORDER=
